<?xml version="1.0" encoding="utf-8"?>
<!-- Generator: Adobe Illustrator 25.2.1, SVG Export Plug-In . SVG Version: 6.00 Build 0)  -->
<svg version="1.1" id="Layer_1" xmlns="http://www.w3.org/2000/svg" xmlns:xlink="http://www.w3.org/1999/xlink" x="0px" y="0px"
	 viewBox="0 0 256 256" style="enable-background:new 0 0 256 256;" xml:space="preserve">
<style type="text/css">
	.st0{fill:#666666;}
</style>
<g id="Regular-M" transform="matrix(1 0 0 1 1388.86 1126)">
	<path class="st0" d="M-1272.94-870.12h24.16c9.21,0,16.27-5.62,18.42-14.47l5.14-22.37l3.83-1.32l19.5,11.96
		c7.78,4.9,16.75,3.71,23.33-2.87l16.75-16.63c6.58-6.58,7.78-15.67,2.87-23.33l-12.2-19.38l1.44-3.59l22.37-5.26
		c8.73-2.15,14.47-9.33,14.47-18.42v-23.69c0-9.09-5.62-16.27-14.47-18.42l-22.13-5.38l-1.56-3.83l12.2-19.38
		c4.9-7.66,3.71-16.63-2.87-23.33l-16.75-16.75c-6.46-6.46-15.43-7.66-23.21-2.87l-19.5,11.96l-4.07-1.56l-5.14-22.37
		c-2.15-8.85-9.21-14.47-18.42-14.47h-24.16c-9.21,0-16.27,5.62-18.42,14.47l-5.26,22.37l-4.07,1.56l-19.38-11.96
		c-7.78-4.79-16.87-3.59-23.33,2.87l-16.63,16.75c-6.58,6.7-7.9,15.67-2.87,23.33l12.08,19.38l-1.44,3.83l-22.13,5.38
		c-8.85,2.15-14.47,9.33-14.47,18.42v23.69c0,9.09,5.74,16.27,14.47,18.42l22.37,5.26l1.32,3.59l-12.08,19.38
		c-5.02,7.66-3.71,16.75,2.87,23.33l16.63,16.63c6.58,6.58,15.67,7.78,23.45,2.87l19.38-11.96l3.83,1.32l5.26,22.37
		C-1289.21-875.74-1282.15-870.12-1272.94-870.12z M-1271.03-888.78c-2.03,0-3.11-0.84-3.47-2.75l-7.18-29.67
		c-7.3-1.79-14.12-4.67-19.26-7.9l-26.08,16.03c-1.44,1.08-2.99,0.84-4.43-0.6l-14.12-14.12c-1.32-1.32-1.44-2.75-0.48-4.43
		l16.03-25.84c-2.75-5.02-5.86-11.84-7.78-19.14l-29.67-7.06c-1.91-0.36-2.75-1.44-2.75-3.47v-19.98c0-2.15,0.72-3.11,2.75-3.47
		l29.55-7.18c1.91-7.78,5.5-14.83,7.66-19.26l-15.91-25.84c-1.08-1.79-0.96-3.23,0.36-4.67l14.24-13.88
		c1.44-1.44,2.75-1.67,4.55-0.6l25.84,15.67c5.14-2.87,12.44-5.86,19.62-7.9l7.06-29.67c0.36-1.91,1.44-2.75,3.47-2.75h20.34
		c2.03,0,3.11,0.84,3.35,2.75l7.3,29.91c7.42,1.91,13.88,4.9,19.26,7.78l25.96-15.79c1.91-1.08,3.11-0.84,4.67,0.6l14.12,13.88
		c1.44,1.44,1.44,2.87,0.36,4.67l-15.91,25.84c2.27,4.43,5.74,11.48,7.66,19.26l29.67,7.18c1.91,0.36,2.75,1.32,2.75,3.47v19.98
		c0,2.03-0.96,3.11-2.75,3.47l-29.79,7.06c-1.91,7.3-4.9,14.12-7.78,19.14l16.03,25.84c0.96,1.67,0.96,3.11-0.48,4.43l-14,14.12
		c-1.56,1.44-2.99,1.67-4.55,0.6l-26.08-16.03c-5.14,3.23-11.84,6.1-19.14,7.9l-7.3,29.67c-0.24,1.91-1.32,2.75-3.35,2.75
		L-1271.03-888.78L-1271.03-888.78z M-1260.86-952.3c25,0,45.58-20.58,45.58-45.7c0-24.88-20.58-45.46-45.58-45.46
		s-45.7,20.58-45.7,45.46C-1306.56-973-1285.98-952.3-1260.86-952.3z M-1260.86-970.84c-14.83,0-27.04-12.2-27.04-27.16
		c0-14.71,12.2-26.92,27.04-26.92c14.59,0,26.8,12.2,26.8,26.92C-1234.06-983.17-1246.26-970.84-1260.86-970.84z"/>
</g>
</svg>
