<?xml version="1.0" encoding="utf-8"?>
<!-- Generator: Adobe Illustrator 25.2.1, SVG Export Plug-In . SVG Version: 6.00 Build 0)  -->
<svg version="1.1" id="Layer_1" xmlns="http://www.w3.org/2000/svg" xmlns:xlink="http://www.w3.org/1999/xlink" x="0px" y="0px"
	 viewBox="0 0 256 256" style="enable-background:new 0 0 256 256;" xml:space="preserve">
<style type="text/css">
	.st0{fill:#666666;}
</style>
<g id="Regular-M" transform="matrix(1 0 0 1 1390.08 1126)">
	<path class="st0" d="M-1273.6-869.44h22.59c6.38,0,11.05-3.81,12.4-10.07l6.38-27.01c4.79-1.6,9.45-3.44,13.5-5.4l23.69,14.48
		c5.28,3.31,11.29,2.82,15.71-1.6l15.84-15.71c4.42-4.42,5.03-10.8,1.47-16.08l-14.48-23.45c2.09-4.3,3.93-8.72,5.28-13.13
		l27.25-6.51c6.26-1.35,9.94-6.01,9.94-12.4v-22.22c0-6.26-3.68-10.93-9.94-12.28l-27.01-6.51c-1.6-5.03-3.56-9.57-5.28-13.38
		l14.49-23.81c3.44-5.28,3.07-11.29-1.47-15.71l-16.08-15.84c-4.54-4.17-9.94-4.91-15.34-1.84l-24.06,14.85
		c-3.93-2.09-8.47-3.93-13.5-5.52l-6.38-27.37c-1.35-6.26-6.01-10.07-12.4-10.07h-22.59c-6.38,0-11.05,3.81-12.52,10.07l-6.38,27.13
		c-4.79,1.6-9.45,3.44-13.63,5.65l-23.81-14.73c-5.4-3.07-10.93-2.45-15.47,1.84l-15.96,15.84c-4.54,4.42-5.03,10.43-1.47,15.71
		l14.36,23.81c-1.6,3.81-3.56,8.35-5.16,13.38l-27.01,6.51c-6.26,1.35-9.94,6.02-9.94,12.28v22.22c0,6.38,3.68,11.05,9.94,12.4
		l27.25,6.51c1.35,4.42,3.19,8.84,5.16,13.13l-14.36,23.45c-3.68,5.28-2.95,11.66,1.47,16.08l15.71,15.71
		c4.42,4.42,10.56,4.91,15.84,1.6l23.57-14.48c4.17,1.96,8.72,3.81,13.5,5.4l6.38,27.01
		C-1284.64-873.25-1279.98-869.44-1273.6-869.44z M-1262.3-954.39c-23.81,0-43.33-19.64-43.33-43.45
		c0-23.69,19.52-43.21,43.33-43.21c23.81,0,43.33,19.52,43.33,43.21C-1218.97-974.03-1238.49-954.39-1262.3-954.39z"/>
</g>
</svg>
